<svg id="Layer_1" data-name="Layer 1" xmlns="http://www.w3.org/2000/svg" viewBox="0 0 512 512"><title>email-send</title><rect width="512" height="512" fill="#fbc132"/><path d="M363.21,287.3a6.83,6.83,0,0,1-7.26,0L235.59,206.81V341c0,7.69,5,14,11.13,14H472.41c6.13,0,11.15-6.3,11.15-14V206.81Z" fill="#fff"/><path d="M361.69,269.82l121.87-81.51V171c0-7.69-5-14-11.15-14H246.72c-6.13,0-11.13,6.28-11.13,14v17.32l121.87,81.51A4.52,4.52,0,0,0,361.69,269.82Z" fill="#fff"/><path d="M217,201.09c0,6.79-4.45,12.37-9.87,12.37H38.31c-5.43,0-9.87-5.58-9.87-12.37V190.26c0-6.81,4.44-12.37,9.87-12.37H207.15c5.43,0,9.87,5.56,9.87,12.37Z" fill="#fff"/><path d="M217,258.31c0,6.81-4.45,12.37-9.87,12.37H95c-5.43,0-9.87-5.56-9.87-12.37V247.48c0-6.79,4.45-12.37,9.87-12.37H207.15c5.43,0,9.87,5.58,9.87,12.37Z" fill="#fff"/><path d="M217,321.74c0,6.79-4.45,12.36-9.87,12.36H148c-5.43,0-9.87-5.58-9.87-12.36V310.91c0-6.81,4.44-12.39,9.87-12.39h59.15c5.43,0,9.87,5.58,9.87,12.39Z" fill="#fff"/></svg>